<svg width="20" height="20" viewBox="0 0 20 20" fill="none" xmlns="http://www.w3.org/2000/svg">
<path d="M15 6.66699H15.8333C16.7174 6.66699 17.5652 7.01818 18.1904 7.6433C18.8155 8.26842 19.1667 9.11627 19.1667 10.0003C19.1667 10.8844 18.8155 11.7322 18.1904 12.3573C17.5652 12.9825 16.7174 13.3337 15.8333 13.3337H15" stroke="#D28F38" stroke-width="1.25" stroke-linecap="round" stroke-linejoin="round"/>
<path d="M1.66666 6.66699H15V14.167C15 15.051 14.6488 15.8989 14.0237 16.524C13.3986 17.1491 12.5507 17.5003 11.6667 17.5003H4.99999C4.11593 17.5003 3.26809 17.1491 2.64297 16.524C2.01785 15.8989 1.66666 15.051 1.66666 14.167V6.66699Z" stroke="#D28F38" stroke-width="1.25" stroke-linecap="round" stroke-linejoin="round"/>
<path d="M5 0.833008V3.33301" stroke="#D28F38" stroke-width="1.25" stroke-linecap="round" stroke-linejoin="round"/>
<path d="M8.33334 0.833008V3.33301" stroke="#D28F38" stroke-width="1.25" stroke-linecap="round" stroke-linejoin="round"/>
<path d="M11.6667 0.833008V3.33301" stroke="#D28F38" stroke-width="1.25" stroke-linecap="round" stroke-linejoin="round"/>
</svg>
