<svg width="20" height="20" viewBox="0 0 20 20" fill="none" xmlns="http://www.w3.org/2000/svg">
<path d="M15 6.6665H15.8333C16.7174 6.6665 17.5652 7.01769 18.1904 7.64281C18.8155 8.26794 19.1667 9.11578 19.1667 9.99984C19.1667 10.8839 18.8155 11.7317 18.1904 12.3569C17.5652 12.982 16.7174 13.3332 15.8333 13.3332H15" stroke="#D28F38" stroke-width="1.25" stroke-linecap="round" stroke-linejoin="round"/>
<path d="M1.66669 6.6665H15V14.1665C15 15.0506 14.6488 15.8984 14.0237 16.5235C13.3986 17.1486 12.5507 17.4998 11.6667 17.4998H5.00002C4.11597 17.4998 3.26812 17.1486 2.643 16.5235C2.01788 15.8984 1.66669 15.0506 1.66669 14.1665V6.6665Z" stroke="#D28F38" stroke-width="1.25" stroke-linecap="round" stroke-linejoin="round"/>
<path d="M5 0.833496V3.3335" stroke="#D28F38" stroke-width="1.25" stroke-linecap="round" stroke-linejoin="round"/>
<path d="M8.33331 0.833496V3.3335" stroke="#D28F38" stroke-width="1.25" stroke-linecap="round" stroke-linejoin="round"/>
<path d="M11.6667 0.833496V3.3335" stroke="#D28F38" stroke-width="1.25" stroke-linecap="round" stroke-linejoin="round"/>
</svg>
