<svg width="24" height="24" viewBox="0 0 24 24" fill="none" xmlns="http://www.w3.org/2000/svg">
<path fill-rule="evenodd" clip-rule="evenodd" d="M16.3156 15.6626C17.6119 14.2123 18.3999 12.2982 18.3999 10.2C18.3999 5.67127 14.7287 2 10.1999 2C5.6712 2 1.99994 5.67127 1.99994 10.2C1.99994 14.7287 5.6712 18.4 10.1999 18.4C12.2228 18.4 14.0745 17.6676 15.5044 16.4534C15.5332 16.5153 15.5732 16.5732 15.6242 16.6243L20.7757 21.7757C21.01 22.01 21.3899 22.01 21.6242 21.7757C21.8585 21.5414 21.8585 21.1615 21.6242 20.9272L16.4727 15.7757C16.4255 15.7285 16.3723 15.6908 16.3156 15.6626ZM17.1999 10.2C17.1999 14.066 14.0659 17.2 10.1999 17.2C6.33395 17.2 3.19994 14.066 3.19994 10.2C3.19994 6.33401 6.33395 3.2 10.1999 3.2C14.0659 3.2 17.1999 6.33401 17.1999 10.2Z" fill="#717171"/>
</svg>
