<svg width="20" height="20" viewBox="0 0 20 20" fill="none" xmlns="http://www.w3.org/2000/svg">
<path fill-rule="evenodd" clip-rule="evenodd" d="M14.3507 13.696C15.6502 12.2422 16.4401 10.3234 16.4401 8.22007C16.4401 3.68025 12.7599 0 8.22007 0C3.68025 0 0 3.68025 0 8.22007C0 12.7599 3.68025 16.4401 8.22007 16.4401C10.2478 16.4401 12.1041 15.7059 13.5375 14.4888C13.5664 14.5508 13.6064 14.6089 13.6576 14.6601L18.8217 19.8241C19.0566 20.059 19.4374 20.059 19.6723 19.8241C19.9072 19.5892 19.9072 19.2084 19.6723 18.9735L14.5082 13.8095C14.4608 13.7621 14.4076 13.7243 14.3507 13.696ZM15.2372 8.22007C15.2372 12.0955 12.0955 15.2372 8.22007 15.2372C4.34461 15.2372 1.20294 12.0955 1.20294 8.22007C1.20294 4.34461 4.34461 1.20294 8.22007 1.20294C12.0955 1.20294 15.2372 4.34461 15.2372 8.22007Z" fill="#717171"/>
</svg>
